<svg xmlns="http://www.w3.org/2000/svg" viewBox="0 0 32 32">
  <defs>
    <linearGradient id="leafGradient" x1="0%" y1="0%" x2="100%" y2="100%">
      <stop offset="0%" style="stop-color:#8B4513;stop-opacity:1" />
      <stop offset="100%" style="stop-color:#A0522D;stop-opacity:1" />
    </linearGradient>
  </defs>
  
  <!-- Maple Leaf Shape -->
  <path d="M16 2 L20 8 L26 6 L24 12 L28 16 L24 20 L26 26 L20 24 L16 30 L12 24 L6 26 L8 20 L4 16 L8 12 L6 6 L12 8 Z" 
        fill="url(#leafGradient)" 
        stroke="#654321" 
        stroke-width="0.5"/>
  
  <!-- Leaf Vein -->
  <path d="M16 2 L16 30" 
        stroke="#654321" 
        stroke-width="0.3" 
        opacity="0.7"/>
  
  <!-- Climate Symbol (small leaf) -->
  <path d="M14 8 L15 10 L17 10 L15.5 11.5 L16.5 13.5 L15 12.5 L13.5 13.5 L14.5 11.5 L13 10 L15 10 Z" 
        fill="#228B22" 
        opacity="0.8"/>
</svg> 